<svg width="473" height="77" viewBox="0 0 473 77" fill="none" xmlns="http://www.w3.org/2000/svg">
<path d="M15.6406 16.4082H5.51562V23.2637H17.3984V27.5H0.242188V1.90625H17.3633V6.17773H5.51562V12.2773H15.6406V16.4082ZM30.459 22.2441C30.459 21.623 30.1484 21.1367 29.5273 20.7852C28.918 20.4219 27.9336 20.0996 26.5742 19.8184C22.0508 18.8691 19.7891 16.9473 19.7891 14.0527C19.7891 12.3652 20.4863 10.959 21.8809 9.83398C23.2871 8.69727 25.1211 8.12891 27.3828 8.12891C29.7969 8.12891 31.7246 8.69727 33.166 9.83398C34.6191 10.9707 35.3457 12.4473 35.3457 14.2637H30.2656C30.2656 13.5371 30.0312 12.9395 29.5625 12.4707C29.0938 11.9902 28.3613 11.75 27.3652 11.75C26.5098 11.75 25.8477 11.9434 25.3789 12.3301C24.9102 12.7168 24.6758 13.209 24.6758 13.8066C24.6758 14.3691 24.9395 14.8262 25.4668 15.1777C26.0059 15.5176 26.9082 15.8164 28.1738 16.0742C29.4395 16.3203 30.5059 16.6016 31.373 16.918C34.0566 17.9023 35.3984 19.6074 35.3984 22.0332C35.3984 23.7676 34.6543 25.1738 33.166 26.252C31.6777 27.3184 29.7559 27.8516 27.4004 27.8516C25.8066 27.8516 24.3887 27.5703 23.1465 27.0078C21.916 26.4336 20.9492 25.6543 20.2461 24.6699C19.543 23.6738 19.1914 22.6016 19.1914 21.4531H24.0078C24.0547 22.3555 24.3887 23.0469 25.0098 23.5273C25.6309 24.0078 26.4629 24.248 27.5059 24.248C28.4785 24.248 29.2109 24.0664 29.7031 23.7031C30.207 23.3281 30.459 22.8418 30.459 22.2441ZM44.7676 3.80469V8.48047H48.0195V12.207H44.7676V21.6992C44.7676 22.4023 44.9023 22.9062 45.1719 23.2109C45.4414 23.5156 45.957 23.668 46.7188 23.668C47.2812 23.668 47.7793 23.627 48.2129 23.5449V27.3945C47.2168 27.6992 46.1914 27.8516 45.1367 27.8516C41.5742 27.8516 39.7578 26.0527 39.6875 22.4551V12.207H36.9102V8.48047H39.6875V3.80469H44.7676ZM61.8711 27.5C61.6367 27.043 61.4668 26.4746 61.3613 25.7949C60.1309 27.166 58.5312 27.8516 56.5625 27.8516C54.6992 27.8516 53.1523 27.3125 51.9219 26.2344C50.7031 25.1562 50.0938 23.7969 50.0938 22.1562C50.0938 20.1406 50.8379 18.5938 52.3262 17.5156C53.8262 16.4375 55.9883 15.8926 58.8125 15.8809H61.1504V14.791C61.1504 13.9121 60.9219 13.209 60.4648 12.6816C60.0195 12.1543 59.3105 11.8906 58.3379 11.8906C57.4824 11.8906 56.8086 12.0957 56.3164 12.5059C55.8359 12.916 55.5957 13.4785 55.5957 14.1934H50.5156C50.5156 13.0918 50.8555 12.0723 51.5352 11.1348C52.2148 10.1973 53.1758 9.46484 54.418 8.9375C55.6602 8.39844 57.0547 8.12891 58.6016 8.12891C60.9453 8.12891 62.8027 8.7207 64.1738 9.9043C65.5566 11.0762 66.248 12.7285 66.248 14.8613V23.1055C66.2598 24.9102 66.5117 26.2754 67.0039 27.2012V27.5H61.8711ZM57.6699 23.9668C58.4199 23.9668 59.1113 23.8027 59.7441 23.4746C60.377 23.1348 60.8457 22.6836 61.1504 22.1211V18.8516H59.252C56.709 18.8516 55.3555 19.7305 55.1914 21.4883L55.1738 21.7871C55.1738 22.4199 55.3965 22.9414 55.8418 23.3516C56.2871 23.7617 56.8965 23.9668 57.6699 23.9668ZM74.9141 8.48047L75.0723 10.6074C76.4199 8.95508 78.2422 8.12891 80.5391 8.12891C82.9883 8.12891 84.6699 9.0957 85.584 11.0293C86.9199 9.0957 88.8242 8.12891 91.2969 8.12891C93.3594 8.12891 94.8945 8.73242 95.9023 9.93945C96.9102 11.1348 97.4141 12.9395 97.4141 15.3535V27.5H92.3164V15.3711C92.3164 14.293 92.1055 13.5078 91.6836 13.0156C91.2617 12.5117 90.5176 12.2598 89.4512 12.2598C87.9277 12.2598 86.873 12.9863 86.2871 14.4395L86.3047 27.5H81.2246V15.3887C81.2246 14.2871 81.0078 13.4902 80.5742 12.998C80.1406 12.5059 79.4023 12.2598 78.3594 12.2598C76.918 12.2598 75.875 12.8574 75.2305 14.0527V27.5H70.1504V8.48047H74.9141ZM100.543 17.8145C100.543 15.9277 100.906 14.2461 101.633 12.7695C102.359 11.293 103.402 10.1504 104.762 9.3418C106.133 8.5332 107.721 8.12891 109.525 8.12891C112.092 8.12891 114.184 8.91406 115.801 10.4844C117.43 12.0547 118.338 14.1875 118.525 16.8828L118.561 18.1836C118.561 21.1016 117.746 23.4453 116.117 25.2148C114.488 26.9727 112.303 27.8516 109.561 27.8516C106.818 27.8516 104.627 26.9727 102.986 25.2148C101.357 23.457 100.543 21.0664 100.543 18.043V17.8145ZM105.623 18.1836C105.623 19.9883 105.963 21.3711 106.643 22.332C107.322 23.2812 108.295 23.7559 109.561 23.7559C110.791 23.7559 111.752 23.2871 112.443 22.3496C113.135 21.4004 113.48 19.8887 113.48 17.8145C113.48 16.0449 113.135 14.6738 112.443 13.7012C111.752 12.7285 110.779 12.2422 109.525 12.2422C108.283 12.2422 107.322 12.7285 106.643 13.7012C105.963 14.6621 105.623 16.1562 105.623 18.1836ZM131.99 22.2441C131.99 21.623 131.68 21.1367 131.059 20.7852C130.449 20.4219 129.465 20.0996 128.105 19.8184C123.582 18.8691 121.32 16.9473 121.32 14.0527C121.32 12.3652 122.018 10.959 123.412 9.83398C124.818 8.69727 126.652 8.12891 128.914 8.12891C131.328 8.12891 133.256 8.69727 134.697 9.83398C136.15 10.9707 136.877 12.4473 136.877 14.2637H131.797C131.797 13.5371 131.562 12.9395 131.094 12.4707C130.625 11.9902 129.893 11.75 128.896 11.75C128.041 11.75 127.379 11.9434 126.91 12.3301C126.441 12.7168 126.207 13.209 126.207 13.8066C126.207 14.3691 126.471 14.8262 126.998 15.1777C127.537 15.5176 128.439 15.8164 129.705 16.0742C130.971 16.3203 132.037 16.6016 132.904 16.918C135.588 17.9023 136.93 19.6074 136.93 22.0332C136.93 23.7676 136.186 25.1738 134.697 26.252C133.209 27.3184 131.287 27.8516 128.932 27.8516C127.338 27.8516 125.92 27.5703 124.678 27.0078C123.447 26.4336 122.48 25.6543 121.777 24.6699C121.074 23.6738 120.723 22.6016 120.723 21.4531H125.539C125.586 22.3555 125.92 23.0469 126.541 23.5273C127.162 24.0078 127.994 24.248 129.037 24.248C130.01 24.248 130.742 24.0664 131.234 23.7031C131.738 23.3281 131.99 22.8418 131.99 22.2441ZM156.301 21.2949L159.834 8.48047H165.143L158.727 27.5H153.875L147.459 8.48047H152.768L156.301 21.2949ZM175.9 27.8516C173.111 27.8516 170.838 26.9961 169.08 25.2852C167.334 23.5742 166.461 21.2949 166.461 18.4473V17.9551C166.461 16.0449 166.83 14.3398 167.568 12.8398C168.307 11.3281 169.35 10.168 170.697 9.35938C172.057 8.53906 173.604 8.12891 175.338 8.12891C177.939 8.12891 179.984 8.94922 181.473 10.5898C182.973 12.2305 183.723 14.5566 183.723 17.5684V19.6426H171.611C171.775 20.8848 172.268 21.8809 173.088 22.6309C173.92 23.3809 174.969 23.7559 176.234 23.7559C178.191 23.7559 179.721 23.0469 180.822 21.6289L183.318 24.4238C182.557 25.502 181.525 26.3457 180.225 26.9551C178.924 27.5527 177.482 27.8516 175.9 27.8516ZM175.32 12.2422C174.312 12.2422 173.492 12.582 172.859 13.2617C172.238 13.9414 171.84 14.9141 171.664 16.1797H178.73V15.7754C178.707 14.6504 178.402 13.7832 177.816 13.1738C177.23 12.5527 176.398 12.2422 175.32 12.2422ZM197.311 13.2441C196.619 13.1504 196.01 13.1035 195.482 13.1035C193.561 13.1035 192.301 13.7539 191.703 15.0547V27.5H186.623V8.48047H191.422L191.562 10.748C192.582 9.00195 193.994 8.12891 195.799 8.12891C196.361 8.12891 196.889 8.20508 197.381 8.35742L197.311 13.2441ZM205.133 27.5H200.035V8.48047H205.133V27.5ZM199.736 3.55859C199.736 2.79688 199.988 2.16992 200.492 1.67773C201.008 1.18555 201.705 0.939453 202.584 0.939453C203.451 0.939453 204.143 1.18555 204.658 1.67773C205.174 2.16992 205.432 2.79688 205.432 3.55859C205.432 4.33203 205.168 4.96484 204.641 5.45703C204.125 5.94922 203.439 6.19531 202.584 6.19531C201.729 6.19531 201.037 5.94922 200.51 5.45703C199.994 4.96484 199.736 4.33203 199.736 3.55859ZM210.564 27.5V12.207H207.734V8.48047H210.564V7.60156C210.588 5.21094 211.32 3.37109 212.762 2.08203C214.215 0.78125 216.26 0.130859 218.896 0.130859C220.479 0.130859 222.4 0.476563 224.662 1.16797L223.924 5.36914C222.775 5.0293 221.885 4.8125 221.252 4.71875C220.619 4.61328 219.939 4.56055 219.213 4.56055C216.846 4.56055 215.662 5.60938 215.662 7.70703V8.48047H219.406V12.207H215.662V27.5H210.564ZM227.035 27.5H221.938V8.48047H227.035V27.5ZM239.146 23.7559C240.084 23.7559 240.846 23.498 241.432 22.9824C242.018 22.4668 242.322 21.7812 242.346 20.9258H247.109C247.098 22.2148 246.746 23.3984 246.055 24.4766C245.363 25.543 244.414 26.375 243.207 26.9727C242.012 27.5586 240.688 27.8516 239.234 27.8516C236.516 27.8516 234.371 26.9902 232.801 25.2676C231.23 23.5332 230.445 21.1426 230.445 18.0957V17.7617C230.445 14.832 231.225 12.4941 232.783 10.748C234.342 9.00195 236.48 8.12891 239.199 8.12891C241.578 8.12891 243.482 8.80859 244.912 10.168C246.354 11.5156 247.086 13.3145 247.109 15.5645H242.346C242.322 14.5801 242.018 13.7832 241.432 13.1738C240.846 12.5527 240.072 12.2422 239.111 12.2422C237.928 12.2422 237.031 12.6758 236.422 13.543C235.824 14.3984 235.525 15.793 235.525 17.7266V18.2539C235.525 20.2109 235.824 21.6172 236.422 22.4727C237.02 23.3281 237.928 23.7559 239.146 23.7559ZM261.031 27.5C260.797 27.043 260.627 26.4746 260.521 25.7949C259.291 27.166 257.691 27.8516 255.723 27.8516C253.859 27.8516 252.312 27.3125 251.082 26.2344C249.863 25.1562 249.254 23.7969 249.254 22.1562C249.254 20.1406 249.998 18.5938 251.486 17.5156C252.986 16.4375 255.148 15.8926 257.973 15.8809H260.311V14.791C260.311 13.9121 260.082 13.209 259.625 12.6816C259.18 12.1543 258.471 11.8906 257.498 11.8906C256.643 11.8906 255.969 12.0957 255.477 12.5059C254.996 12.916 254.756 13.4785 254.756 14.1934H249.676C249.676 13.0918 250.016 12.0723 250.695 11.1348C251.375 10.1973 252.336 9.46484 253.578 8.9375C254.82 8.39844 256.215 8.12891 257.762 8.12891C260.105 8.12891 261.963 8.7207 263.334 9.9043C264.717 11.0762 265.408 12.7285 265.408 14.8613V23.1055C265.42 24.9102 265.672 26.2754 266.164 27.2012V27.5H261.031ZM256.83 23.9668C257.58 23.9668 258.271 23.8027 258.904 23.4746C259.537 23.1348 260.006 22.6836 260.311 22.1211V18.8516H258.412C255.869 18.8516 254.516 19.7305 254.352 21.4883L254.334 21.7871C254.334 22.4199 254.557 22.9414 255.002 23.3516C255.447 23.7617 256.057 23.9668 256.83 23.9668ZM273.986 8.48047L274.145 10.6777C275.504 8.97852 277.326 8.12891 279.611 8.12891C281.627 8.12891 283.127 8.7207 284.111 9.9043C285.096 11.0879 285.6 12.8574 285.623 15.2129V27.5H280.543V15.3359C280.543 14.2578 280.309 13.4785 279.84 12.998C279.371 12.5059 278.592 12.2598 277.502 12.2598C276.072 12.2598 275 12.8691 274.285 14.0879V27.5H269.205V8.48047H273.986ZM288.699 17.8496C288.699 14.8848 289.361 12.5234 290.686 10.7656C292.021 9.00781 293.844 8.12891 296.152 8.12891C298.004 8.12891 299.533 8.82031 300.74 10.2031V0.5H305.838V27.5H301.25L301.004 25.4785C299.738 27.0605 298.109 27.8516 296.117 27.8516C293.879 27.8516 292.08 26.9727 290.721 25.2148C289.373 23.4453 288.699 20.9902 288.699 17.8496ZM293.779 18.2188C293.779 20 294.09 21.3652 294.711 22.3145C295.332 23.2637 296.234 23.7383 297.418 23.7383C298.988 23.7383 300.096 23.0762 300.74 21.752V14.2461C300.107 12.9219 299.012 12.2598 297.453 12.2598C295.004 12.2598 293.779 14.2461 293.779 18.2188ZM308.984 17.8145C308.984 15.9277 309.348 14.2461 310.074 12.7695C310.801 11.293 311.844 10.1504 313.203 9.3418C314.574 8.5332 316.162 8.12891 317.967 8.12891C320.533 8.12891 322.625 8.91406 324.242 10.4844C325.871 12.0547 326.779 14.1875 326.967 16.8828L327.002 18.1836C327.002 21.1016 326.188 23.4453 324.559 25.2148C322.93 26.9727 320.744 27.8516 318.002 27.8516C315.26 27.8516 313.068 26.9727 311.428 25.2148C309.799 23.457 308.984 21.0664 308.984 18.043V17.8145ZM314.064 18.1836C314.064 19.9883 314.404 21.3711 315.084 22.332C315.764 23.2812 316.736 23.7559 318.002 23.7559C319.232 23.7559 320.193 23.2871 320.885 22.3496C321.576 21.4004 321.922 19.8887 321.922 17.8145C321.922 16.0449 321.576 14.6738 320.885 13.7012C320.193 12.7285 319.221 12.2422 317.967 12.2422C316.725 12.2422 315.764 12.7285 315.084 13.7012C314.404 14.6621 314.064 16.1562 314.064 18.1836ZM345.178 3.80469V8.48047H348.43V12.207H345.178V21.6992C345.178 22.4023 345.312 22.9062 345.582 23.2109C345.852 23.5156 346.367 23.668 347.129 23.668C347.691 23.668 348.189 23.627 348.623 23.5449V27.3945C347.627 27.6992 346.602 27.8516 345.547 27.8516C341.984 27.8516 340.168 26.0527 340.098 22.4551V12.207H337.32V8.48047H340.098V3.80469H345.178ZM349.941 17.8145C349.941 15.9277 350.305 14.2461 351.031 12.7695C351.758 11.293 352.801 10.1504 354.16 9.3418C355.531 8.5332 357.119 8.12891 358.924 8.12891C361.49 8.12891 363.582 8.91406 365.199 10.4844C366.828 12.0547 367.736 14.1875 367.924 16.8828L367.959 18.1836C367.959 21.1016 367.145 23.4453 365.516 25.2148C363.887 26.9727 361.701 27.8516 358.959 27.8516C356.217 27.8516 354.025 26.9727 352.385 25.2148C350.756 23.457 349.941 21.0664 349.941 18.043V17.8145ZM355.021 18.1836C355.021 19.9883 355.361 21.3711 356.041 22.332C356.721 23.2812 357.693 23.7559 358.959 23.7559C360.189 23.7559 361.15 23.2871 361.842 22.3496C362.533 21.4004 362.879 19.8887 362.879 17.8145C362.879 16.0449 362.533 14.6738 361.842 13.7012C361.15 12.7285 360.178 12.2422 358.924 12.2422C357.682 12.2422 356.721 12.7285 356.041 13.7012C355.361 14.6621 355.021 16.1562 355.021 18.1836ZM370.297 17.8496C370.297 14.8848 370.959 12.5234 372.283 10.7656C373.619 9.00781 375.441 8.12891 377.75 8.12891C379.602 8.12891 381.131 8.82031 382.338 10.2031V0.5H387.436V27.5H382.848L382.602 25.4785C381.336 27.0605 379.707 27.8516 377.715 27.8516C375.477 27.8516 373.678 26.9727 372.318 25.2148C370.971 23.4453 370.297 20.9902 370.297 17.8496ZM375.377 18.2188C375.377 20 375.688 21.3652 376.309 22.3145C376.93 23.2637 377.832 23.7383 379.016 23.7383C380.586 23.7383 381.693 23.0762 382.338 21.752V14.2461C381.705 12.9219 380.609 12.2598 379.051 12.2598C376.602 12.2598 375.377 14.2461 375.377 18.2188ZM402.395 27.5C402.16 27.043 401.99 26.4746 401.885 25.7949C400.654 27.166 399.055 27.8516 397.086 27.8516C395.223 27.8516 393.676 27.3125 392.445 26.2344C391.227 25.1562 390.617 23.7969 390.617 22.1562C390.617 20.1406 391.361 18.5938 392.85 17.5156C394.35 16.4375 396.512 15.8926 399.336 15.8809H401.674V14.791C401.674 13.9121 401.445 13.209 400.988 12.6816C400.543 12.1543 399.834 11.8906 398.861 11.8906C398.006 11.8906 397.332 12.0957 396.84 12.5059C396.359 12.916 396.119 13.4785 396.119 14.1934H391.039C391.039 13.0918 391.379 12.0723 392.059 11.1348C392.738 10.1973 393.699 9.46484 394.941 8.9375C396.184 8.39844 397.578 8.12891 399.125 8.12891C401.469 8.12891 403.326 8.7207 404.697 9.9043C406.08 11.0762 406.771 12.7285 406.771 14.8613V23.1055C406.783 24.9102 407.035 26.2754 407.527 27.2012V27.5H402.395ZM398.193 23.9668C398.943 23.9668 399.635 23.8027 400.268 23.4746C400.9 23.1348 401.369 22.6836 401.674 22.1211V18.8516H399.775C397.232 18.8516 395.879 19.7305 395.715 21.4883L395.697 21.7871C395.697 22.4199 395.92 22.9414 396.365 23.3516C396.811 23.7617 397.42 23.9668 398.193 23.9668ZM420.975 22.2441C420.975 21.623 420.664 21.1367 420.043 20.7852C419.434 20.4219 418.449 20.0996 417.09 19.8184C412.566 18.8691 410.305 16.9473 410.305 14.0527C410.305 12.3652 411.002 10.959 412.396 9.83398C413.803 8.69727 415.637 8.12891 417.898 8.12891C420.312 8.12891 422.24 8.69727 423.682 9.83398C425.135 10.9707 425.861 12.4473 425.861 14.2637H420.781C420.781 13.5371 420.547 12.9395 420.078 12.4707C419.609 11.9902 418.877 11.75 417.881 11.75C417.025 11.75 416.363 11.9434 415.895 12.3301C415.426 12.7168 415.191 13.209 415.191 13.8066C415.191 14.3691 415.455 14.8262 415.982 15.1777C416.521 15.5176 417.424 15.8164 418.689 16.0742C419.955 16.3203 421.021 16.6016 421.889 16.918C424.572 17.9023 425.914 19.6074 425.914 22.0332C425.914 23.7676 425.17 25.1738 423.682 26.252C422.193 27.3184 420.271 27.8516 417.916 27.8516C416.322 27.8516 414.904 27.5703 413.662 27.0078C412.432 26.4336 411.465 25.6543 410.762 24.6699C410.059 23.6738 409.707 22.6016 409.707 21.4531H414.523C414.57 22.3555 414.904 23.0469 415.525 23.5273C416.146 24.0078 416.979 24.248 418.021 24.248C418.994 24.248 419.727 24.0664 420.219 23.7031C420.723 23.3281 420.975 22.8418 420.975 22.2441ZM449.188 27.5C448.953 27.043 448.783 26.4746 448.678 25.7949C447.447 27.166 445.848 27.8516 443.879 27.8516C442.016 27.8516 440.469 27.3125 439.238 26.2344C438.02 25.1562 437.41 23.7969 437.41 22.1562C437.41 20.1406 438.154 18.5938 439.643 17.5156C441.143 16.4375 443.305 15.8926 446.129 15.8809H448.467V14.791C448.467 13.9121 448.238 13.209 447.781 12.6816C447.336 12.1543 446.627 11.8906 445.654 11.8906C444.799 11.8906 444.125 12.0957 443.633 12.5059C443.152 12.916 442.912 13.4785 442.912 14.1934H437.832C437.832 13.0918 438.172 12.0723 438.852 11.1348C439.531 10.1973 440.492 9.46484 441.734 8.9375C442.977 8.39844 444.371 8.12891 445.918 8.12891C448.262 8.12891 450.119 8.7207 451.49 9.9043C452.873 11.0762 453.564 12.7285 453.564 14.8613V23.1055C453.576 24.9102 453.828 26.2754 454.32 27.2012V27.5H449.188ZM444.986 23.9668C445.736 23.9668 446.428 23.8027 447.061 23.4746C447.693 23.1348 448.162 22.6836 448.467 22.1211V18.8516H446.568C444.025 18.8516 442.672 19.7305 442.508 21.4883L442.49 21.7871C442.49 22.4199 442.713 22.9414 443.158 23.3516C443.604 23.7617 444.213 23.9668 444.986 23.9668ZM467.768 22.2441C467.768 21.623 467.457 21.1367 466.836 20.7852C466.227 20.4219 465.242 20.0996 463.883 19.8184C459.359 18.8691 457.098 16.9473 457.098 14.0527C457.098 12.3652 457.795 10.959 459.189 9.83398C460.596 8.69727 462.43 8.12891 464.691 8.12891C467.105 8.12891 469.033 8.69727 470.475 9.83398C471.928 10.9707 472.654 12.4473 472.654 14.2637H467.574C467.574 13.5371 467.34 12.9395 466.871 12.4707C466.402 11.9902 465.67 11.75 464.674 11.75C463.818 11.75 463.156 11.9434 462.688 12.3301C462.219 12.7168 461.984 13.209 461.984 13.8066C461.984 14.3691 462.248 14.8262 462.775 15.1777C463.314 15.5176 464.217 15.8164 465.482 16.0742C466.748 16.3203 467.814 16.6016 468.682 16.918C471.365 17.9023 472.707 19.6074 472.707 22.0332C472.707 23.7676 471.963 25.1738 470.475 26.252C468.986 27.3184 467.064 27.8516 464.709 27.8516C463.115 27.8516 461.697 27.5703 460.455 27.0078C459.225 26.4336 458.258 25.6543 457.555 24.6699C456.852 23.6738 456.5 22.6016 456.5 21.4531H461.316C461.363 22.3555 461.697 23.0469 462.318 23.5273C462.939 24.0078 463.771 24.248 464.814 24.248C465.787 24.248 466.52 24.0664 467.012 23.7031C467.516 23.3281 467.768 22.8418 467.768 22.2441ZM5.2168 50.4805L5.375 52.6074C6.72266 50.9551 8.54492 50.1289 10.8418 50.1289C13.291 50.1289 14.9727 51.0957 15.8867 53.0293C17.2227 51.0957 19.127 50.1289 21.5996 50.1289C23.6621 50.1289 25.1973 50.7324 26.2051 51.9395C27.2129 53.1348 27.7168 54.9395 27.7168 57.3535V69.5H22.6191V57.3711C22.6191 56.293 22.4082 55.5078 21.9863 55.0156C21.5645 54.5117 20.8203 54.2598 19.7539 54.2598C18.2305 54.2598 17.1758 54.9863 16.5898 56.4395L16.6074 69.5H11.5273V57.3887C11.5273 56.2871 11.3105 55.4902 10.877 54.998C10.4434 54.5059 9.70508 54.2598 8.66211 54.2598C7.2207 54.2598 6.17773 54.8574 5.5332 56.0527V69.5H0.453125V50.4805H5.2168ZM40.3906 69.8516C37.6016 69.8516 35.3281 68.9961 33.5703 67.2852C31.8242 65.5742 30.9512 63.2949 30.9512 60.4473V59.9551C30.9512 58.0449 31.3203 56.3398 32.0586 54.8398C32.7969 53.3281 33.8398 52.168 35.1875 51.3594C36.5469 50.5391 38.0938 50.1289 39.8281 50.1289C42.4297 50.1289 44.4746 50.9492 45.9629 52.5898C47.4629 54.2305 48.2129 56.5566 48.2129 59.5684V61.6426H36.1016C36.2656 62.8848 36.7578 63.8809 37.5781 64.6309C38.4102 65.3809 39.459 65.7559 40.7246 65.7559C42.6816 65.7559 44.2109 65.0469 45.3125 63.6289L47.8086 66.4238C47.0469 67.502 46.0156 68.3457 44.7148 68.9551C43.4141 69.5527 41.9727 69.8516 40.3906 69.8516ZM39.8105 54.2422C38.8027 54.2422 37.9824 54.582 37.3496 55.2617C36.7285 55.9414 36.3301 56.9141 36.1543 58.1797H43.2207V57.7754C43.1973 56.6504 42.8926 55.7832 42.3066 55.1738C41.7207 54.5527 40.8887 54.2422 39.8105 54.2422ZM55.7891 50.4805L55.9473 52.6777C57.3066 50.9785 59.1289 50.1289 61.4141 50.1289C63.4297 50.1289 64.9297 50.7207 65.9141 51.9043C66.8984 53.0879 67.4023 54.8574 67.4258 57.2129V69.5H62.3457V57.3359C62.3457 56.2578 62.1113 55.4785 61.6426 54.998C61.1738 54.5059 60.3945 54.2598 59.3047 54.2598C57.875 54.2598 56.8027 54.8691 56.0879 56.0879V69.5H51.0078V50.4805H55.7891ZM81.5938 64.2441C81.5938 63.623 81.2832 63.1367 80.6621 62.7852C80.0527 62.4219 79.0684 62.0996 77.709 61.8184C73.1855 60.8691 70.9238 58.9473 70.9238 56.0527C70.9238 54.3652 71.6211 52.959 73.0156 51.834C74.4219 50.6973 76.2559 50.1289 78.5176 50.1289C80.9316 50.1289 82.8594 50.6973 84.3008 51.834C85.7539 52.9707 86.4805 54.4473 86.4805 56.2637H81.4004C81.4004 55.5371 81.166 54.9395 80.6973 54.4707C80.2285 53.9902 79.4961 53.75 78.5 53.75C77.6445 53.75 76.9824 53.9434 76.5137 54.3301C76.0449 54.7168 75.8105 55.209 75.8105 55.8066C75.8105 56.3691 76.0742 56.8262 76.6016 57.1777C77.1406 57.5176 78.043 57.8164 79.3086 58.0742C80.5742 58.3203 81.6406 58.6016 82.5078 58.918C85.1914 59.9023 86.5332 61.6074 86.5332 64.0332C86.5332 65.7676 85.7891 67.1738 84.3008 68.252C82.8125 69.3184 80.8906 69.8516 78.5352 69.8516C76.9414 69.8516 75.5234 69.5703 74.2812 69.0078C73.0508 68.4336 72.084 67.6543 71.3809 66.6699C70.6777 65.6738 70.3262 64.6016 70.3262 63.4531H75.1426C75.1895 64.3555 75.5234 65.0469 76.1445 65.5273C76.7656 66.0078 77.5977 66.248 78.6406 66.248C79.6133 66.248 80.3457 66.0664 80.8379 65.7031C81.3418 65.3281 81.5938 64.8418 81.5938 64.2441ZM100.842 69.5C100.607 69.043 100.438 68.4746 100.332 67.7949C99.1016 69.166 97.502 69.8516 95.5332 69.8516C93.6699 69.8516 92.123 69.3125 90.8926 68.2344C89.6738 67.1562 89.0645 65.7969 89.0645 64.1562C89.0645 62.1406 89.8086 60.5938 91.2969 59.5156C92.7969 58.4375 94.959 57.8926 97.7832 57.8809H100.121V56.791C100.121 55.9121 99.8926 55.209 99.4355 54.6816C98.9902 54.1543 98.2812 53.8906 97.3086 53.8906C96.4531 53.8906 95.7793 54.0957 95.2871 54.5059C94.8066 54.916 94.5664 55.4785 94.5664 56.1934H89.4863C89.4863 55.0918 89.8262 54.0723 90.5059 53.1348C91.1855 52.1973 92.1465 51.4648 93.3887 50.9375C94.6309 50.3984 96.0254 50.1289 97.5723 50.1289C99.916 50.1289 101.773 50.7207 103.145 51.9043C104.527 53.0762 105.219 54.7285 105.219 56.8613V65.1055C105.23 66.9102 105.482 68.2754 105.975 69.2012V69.5H100.842ZM96.6406 65.9668C97.3906 65.9668 98.082 65.8027 98.7148 65.4746C99.3477 65.1348 99.8164 64.6836 100.121 64.1211V60.8516H98.2227C95.6797 60.8516 94.3262 61.7305 94.1621 63.4883L94.1445 63.7871C94.1445 64.4199 94.3672 64.9414 94.8125 65.3516C95.2578 65.7617 95.8672 65.9668 96.6406 65.9668ZM108.383 59.8496C108.383 56.9316 109.074 54.582 110.457 52.8008C111.852 51.0195 113.727 50.1289 116.082 50.1289C118.168 50.1289 119.791 50.8438 120.951 52.2734L121.162 50.4805H125.768V68.8672C125.768 70.5312 125.387 71.9785 124.625 73.209C123.875 74.4395 122.814 75.377 121.443 76.0215C120.072 76.666 118.467 76.9883 116.627 76.9883C115.232 76.9883 113.873 76.707 112.549 76.1445C111.225 75.5938 110.223 74.8789 109.543 74L111.793 70.9062C113.059 72.3242 114.594 73.0332 116.398 73.0332C117.746 73.0332 118.795 72.6699 119.545 71.9434C120.295 71.2285 120.67 70.209 120.67 68.8848V67.8652C119.498 69.1895 117.957 69.8516 116.047 69.8516C113.762 69.8516 111.91 68.9609 110.492 67.1797C109.086 65.3867 108.383 63.0137 108.383 60.0605V59.8496ZM113.463 60.2188C113.463 61.9414 113.809 63.2949 114.5 64.2793C115.191 65.252 116.141 65.7383 117.348 65.7383C118.895 65.7383 120.002 65.1582 120.67 63.998V56C119.99 54.8398 118.895 54.2598 117.383 54.2598C116.164 54.2598 115.203 54.7578 114.5 55.7539C113.809 56.75 113.463 58.2383 113.463 60.2188ZM138.441 69.8516C135.652 69.8516 133.379 68.9961 131.621 67.2852C129.875 65.5742 129.002 63.2949 129.002 60.4473V59.9551C129.002 58.0449 129.371 56.3398 130.109 54.8398C130.848 53.3281 131.891 52.168 133.238 51.3594C134.598 50.5391 136.145 50.1289 137.879 50.1289C140.48 50.1289 142.525 50.9492 144.014 52.5898C145.514 54.2305 146.264 56.5566 146.264 59.5684V61.6426H134.152C134.316 62.8848 134.809 63.8809 135.629 64.6309C136.461 65.3809 137.51 65.7559 138.775 65.7559C140.732 65.7559 142.262 65.0469 143.363 63.6289L145.859 66.4238C145.098 67.502 144.066 68.3457 142.766 68.9551C141.465 69.5527 140.023 69.8516 138.441 69.8516ZM137.861 54.2422C136.854 54.2422 136.033 54.582 135.4 55.2617C134.779 55.9414 134.381 56.9141 134.205 58.1797H141.271V57.7754C141.248 56.6504 140.943 55.7832 140.357 55.1738C139.771 54.5527 138.939 54.2422 137.861 54.2422ZM153.84 50.4805L153.998 52.6777C155.357 50.9785 157.18 50.1289 159.465 50.1289C161.48 50.1289 162.98 50.7207 163.965 51.9043C164.949 53.0879 165.453 54.8574 165.477 57.2129V69.5H160.396V57.3359C160.396 56.2578 160.162 55.4785 159.693 54.998C159.225 54.5059 158.445 54.2598 157.355 54.2598C155.926 54.2598 154.854 54.8691 154.139 56.0879V69.5H149.059V50.4805H153.84ZM179.645 64.2441C179.645 63.623 179.334 63.1367 178.713 62.7852C178.104 62.4219 177.119 62.0996 175.76 61.8184C171.236 60.8691 168.975 58.9473 168.975 56.0527C168.975 54.3652 169.672 52.959 171.066 51.834C172.473 50.6973 174.307 50.1289 176.568 50.1289C178.982 50.1289 180.91 50.6973 182.352 51.834C183.805 52.9707 184.531 54.4473 184.531 56.2637H179.451C179.451 55.5371 179.217 54.9395 178.748 54.4707C178.279 53.9902 177.547 53.75 176.551 53.75C175.695 53.75 175.033 53.9434 174.564 54.3301C174.096 54.7168 173.861 55.209 173.861 55.8066C173.861 56.3691 174.125 56.8262 174.652 57.1777C175.191 57.5176 176.094 57.8164 177.359 58.0742C178.625 58.3203 179.691 58.6016 180.559 58.918C183.242 59.9023 184.584 61.6074 184.584 64.0332C184.584 65.7676 183.84 67.1738 182.352 68.252C180.863 69.3184 178.941 69.8516 176.586 69.8516C174.992 69.8516 173.574 69.5703 172.332 69.0078C171.102 68.4336 170.135 67.6543 169.432 66.6699C168.729 65.6738 168.377 64.6016 168.377 63.4531H173.193C173.24 64.3555 173.574 65.0469 174.195 65.5273C174.816 66.0078 175.648 66.248 176.691 66.248C177.664 66.248 178.396 66.0664 178.889 65.7031C179.393 65.3281 179.645 64.8418 179.645 64.2441ZM205.59 69.8516C202.801 69.8516 200.527 68.9961 198.77 67.2852C197.023 65.5742 196.15 63.2949 196.15 60.4473V59.9551C196.15 58.0449 196.52 56.3398 197.258 54.8398C197.996 53.3281 199.039 52.168 200.387 51.3594C201.746 50.5391 203.293 50.1289 205.027 50.1289C207.629 50.1289 209.674 50.9492 211.162 52.5898C212.662 54.2305 213.412 56.5566 213.412 59.5684V61.6426H201.301C201.465 62.8848 201.957 63.8809 202.777 64.6309C203.609 65.3809 204.658 65.7559 205.924 65.7559C207.881 65.7559 209.41 65.0469 210.512 63.6289L213.008 66.4238C212.246 67.502 211.215 68.3457 209.914 68.9551C208.613 69.5527 207.172 69.8516 205.59 69.8516ZM205.01 54.2422C204.002 54.2422 203.182 54.582 202.549 55.2617C201.928 55.9414 201.529 56.9141 201.354 58.1797H208.42V57.7754C208.396 56.6504 208.092 55.7832 207.506 55.1738C206.92 54.5527 206.088 54.2422 205.01 54.2422ZM221.076 50.4805L221.234 52.6074C222.582 50.9551 224.404 50.1289 226.701 50.1289C229.15 50.1289 230.832 51.0957 231.746 53.0293C233.082 51.0957 234.986 50.1289 237.459 50.1289C239.521 50.1289 241.057 50.7324 242.064 51.9395C243.072 53.1348 243.576 54.9395 243.576 57.3535V69.5H238.479V57.3711C238.479 56.293 238.268 55.5078 237.846 55.0156C237.424 54.5117 236.68 54.2598 235.613 54.2598C234.09 54.2598 233.035 54.9863 232.449 56.4395L232.467 69.5H227.387V57.3887C227.387 56.2871 227.17 55.4902 226.736 54.998C226.303 54.5059 225.564 54.2598 224.521 54.2598C223.08 54.2598 222.037 54.8574 221.393 56.0527V69.5H216.312V50.4805H221.076ZM266.762 64.2441C266.762 63.623 266.451 63.1367 265.83 62.7852C265.221 62.4219 264.236 62.0996 262.877 61.8184C258.354 60.8691 256.092 58.9473 256.092 56.0527C256.092 54.3652 256.789 52.959 258.184 51.834C259.59 50.6973 261.424 50.1289 263.686 50.1289C266.1 50.1289 268.027 50.6973 269.469 51.834C270.922 52.9707 271.648 54.4473 271.648 56.2637H266.568C266.568 55.5371 266.334 54.9395 265.865 54.4707C265.396 53.9902 264.664 53.75 263.668 53.75C262.812 53.75 262.15 53.9434 261.682 54.3301C261.213 54.7168 260.979 55.209 260.979 55.8066C260.979 56.3691 261.242 56.8262 261.77 57.1777C262.309 57.5176 263.211 57.8164 264.477 58.0742C265.742 58.3203 266.809 58.6016 267.676 58.918C270.359 59.9023 271.701 61.6074 271.701 64.0332C271.701 65.7676 270.957 67.1738 269.469 68.252C267.98 69.3184 266.059 69.8516 263.703 69.8516C262.109 69.8516 260.691 69.5703 259.449 69.0078C258.219 68.4336 257.252 67.6543 256.549 66.6699C255.846 65.6738 255.494 64.6016 255.494 63.4531H260.311C260.357 64.3555 260.691 65.0469 261.312 65.5273C261.934 66.0078 262.766 66.248 263.809 66.248C264.781 66.248 265.514 66.0664 266.006 65.7031C266.51 65.3281 266.762 64.8418 266.762 64.2441ZM283.742 69.8516C280.953 69.8516 278.68 68.9961 276.922 67.2852C275.176 65.5742 274.303 63.2949 274.303 60.4473V59.9551C274.303 58.0449 274.672 56.3398 275.41 54.8398C276.148 53.3281 277.191 52.168 278.539 51.3594C279.898 50.5391 281.445 50.1289 283.18 50.1289C285.781 50.1289 287.826 50.9492 289.314 52.5898C290.814 54.2305 291.564 56.5566 291.564 59.5684V61.6426H279.453C279.617 62.8848 280.109 63.8809 280.93 64.6309C281.762 65.3809 282.811 65.7559 284.076 65.7559C286.033 65.7559 287.562 65.0469 288.664 63.6289L291.16 66.4238C290.398 67.502 289.367 68.3457 288.066 68.9551C286.766 69.5527 285.324 69.8516 283.742 69.8516ZM283.162 54.2422C282.154 54.2422 281.334 54.582 280.701 55.2617C280.08 55.9414 279.682 56.9141 279.506 58.1797H286.572V57.7754C286.549 56.6504 286.244 55.7832 285.658 55.1738C285.072 54.5527 284.24 54.2422 283.162 54.2422ZM305.855 67.5664C304.602 69.0898 302.867 69.8516 300.652 69.8516C298.613 69.8516 297.055 69.2656 295.977 68.0938C294.91 66.9219 294.365 65.2051 294.342 62.9434V50.4805H299.422V62.7676C299.422 64.748 300.324 65.7383 302.129 65.7383C303.852 65.7383 305.035 65.1406 305.68 63.9453V50.4805H310.777V69.5H305.996L305.855 67.5664ZM334.596 69.5C334.361 69.043 334.191 68.4746 334.086 67.7949C332.855 69.166 331.256 69.8516 329.287 69.8516C327.424 69.8516 325.877 69.3125 324.646 68.2344C323.428 67.1562 322.818 65.7969 322.818 64.1562C322.818 62.1406 323.562 60.5938 325.051 59.5156C326.551 58.4375 328.713 57.8926 331.537 57.8809H333.875V56.791C333.875 55.9121 333.646 55.209 333.189 54.6816C332.744 54.1543 332.035 53.8906 331.062 53.8906C330.207 53.8906 329.533 54.0957 329.041 54.5059C328.561 54.916 328.32 55.4785 328.32 56.1934H323.24C323.24 55.0918 323.58 54.0723 324.26 53.1348C324.939 52.1973 325.9 51.4648 327.143 50.9375C328.385 50.3984 329.779 50.1289 331.326 50.1289C333.67 50.1289 335.527 50.7207 336.898 51.9043C338.281 53.0762 338.973 54.7285 338.973 56.8613V65.1055C338.984 66.9102 339.236 68.2754 339.729 69.2012V69.5H334.596ZM330.395 65.9668C331.145 65.9668 331.836 65.8027 332.469 65.4746C333.102 65.1348 333.57 64.6836 333.875 64.1211V60.8516H331.977C329.434 60.8516 328.08 61.7305 327.916 63.4883L327.898 63.7871C327.898 64.4199 328.121 64.9414 328.566 65.3516C329.012 65.7617 329.621 65.9668 330.395 65.9668ZM353.562 55.2441C352.871 55.1504 352.262 55.1035 351.734 55.1035C349.812 55.1035 348.553 55.7539 347.955 57.0547V69.5H342.875V50.4805H347.674L347.814 52.748C348.834 51.002 350.246 50.1289 352.051 50.1289C352.613 50.1289 353.141 50.2051 353.633 50.3574L353.562 55.2441ZM354.881 59.8145C354.881 56.8262 355.543 54.4648 356.867 52.7305C358.203 50.9961 360.031 50.1289 362.352 50.1289C364.391 50.1289 366.014 50.9082 367.221 52.4668L367.555 50.4805H372.02V76.8125H366.922V67.8652C365.75 69.1895 364.215 69.8516 362.316 69.8516C360.055 69.8516 358.25 68.9727 356.902 67.2148C355.555 65.457 354.881 62.9902 354.881 59.8145ZM359.961 60.1836C359.961 62 360.277 63.3828 360.91 64.332C361.555 65.2812 362.457 65.7559 363.617 65.7559C365.176 65.7559 366.277 65.1348 366.922 63.8926V56.0352C366.289 54.8398 365.199 54.2422 363.652 54.2422C362.48 54.2422 361.572 54.7168 360.928 55.666C360.283 56.6152 359.961 58.1211 359.961 60.1836ZM387.418 67.5664C386.164 69.0898 384.43 69.8516 382.215 69.8516C380.176 69.8516 378.617 69.2656 377.539 68.0938C376.473 66.9219 375.928 65.2051 375.904 62.9434V50.4805H380.984V62.7676C380.984 64.748 381.887 65.7383 383.691 65.7383C385.414 65.7383 386.598 65.1406 387.242 63.9453V50.4805H392.34V69.5H387.559L387.418 67.5664ZM401.533 69.5H396.436V50.4805H401.533V69.5ZM396.137 45.5586C396.137 44.7969 396.389 44.1699 396.893 43.6777C397.408 43.1855 398.105 42.9395 398.984 42.9395C399.852 42.9395 400.543 43.1855 401.059 43.6777C401.574 44.1699 401.832 44.7969 401.832 45.5586C401.832 46.332 401.568 46.9648 401.041 47.457C400.525 47.9492 399.84 48.1953 398.984 48.1953C398.129 48.1953 397.438 47.9492 396.91 47.457C396.395 46.9648 396.137 46.332 396.137 45.5586ZM412.854 63.2949L416.387 50.4805H421.695L415.279 69.5H410.428L404.012 50.4805H409.32L412.854 63.2949ZM422.873 59.8145C422.873 57.9277 423.236 56.2461 423.963 54.7695C424.689 53.293 425.732 52.1504 427.092 51.3418C428.463 50.5332 430.051 50.1289 431.855 50.1289C434.422 50.1289 436.514 50.9141 438.131 52.4844C439.76 54.0547 440.668 56.1875 440.855 58.8828L440.891 60.1836C440.891 63.1016 440.076 65.4453 438.447 67.2148C436.818 68.9727 434.633 69.8516 431.891 69.8516C429.148 69.8516 426.957 68.9727 425.316 67.2148C423.688 65.457 422.873 63.0664 422.873 60.043V59.8145ZM427.953 60.1836C427.953 61.9883 428.293 63.3711 428.973 64.332C429.652 65.2812 430.625 65.7559 431.891 65.7559C433.121 65.7559 434.082 65.2871 434.773 64.3496C435.465 63.4004 435.811 61.8887 435.811 59.8145C435.811 58.0449 435.465 56.6738 434.773 55.7012C434.082 54.7285 433.109 54.2422 431.855 54.2422C430.613 54.2422 429.652 54.7285 428.973 55.7012C428.293 56.6621 427.953 58.1562 427.953 60.1836ZM444.283 67.0039C444.283 66.1953 444.553 65.5391 445.092 65.0352C445.643 64.5312 446.328 64.2793 447.148 64.2793C447.98 64.2793 448.666 64.5312 449.205 65.0352C449.756 65.5391 450.031 66.1953 450.031 67.0039C450.031 67.8008 449.762 68.4512 449.223 68.9551C448.684 69.4473 447.992 69.6934 447.148 69.6934C446.316 69.6934 445.631 69.4473 445.092 68.9551C444.553 68.4512 444.283 67.8008 444.283 67.0039ZM454.76 67.0039C454.76 66.1953 455.029 65.5391 455.568 65.0352C456.119 64.5312 456.805 64.2793 457.625 64.2793C458.457 64.2793 459.143 64.5312 459.682 65.0352C460.232 65.5391 460.508 66.1953 460.508 67.0039C460.508 67.8008 460.238 68.4512 459.699 68.9551C459.16 69.4473 458.469 69.6934 457.625 69.6934C456.793 69.6934 456.107 69.4473 455.568 68.9551C455.029 68.4512 454.76 67.8008 454.76 67.0039ZM465.236 67.0039C465.236 66.1953 465.506 65.5391 466.045 65.0352C466.596 64.5312 467.281 64.2793 468.102 64.2793C468.934 64.2793 469.619 64.5312 470.158 65.0352C470.709 65.5391 470.984 66.1953 470.984 67.0039C470.984 67.8008 470.715 68.4512 470.176 68.9551C469.637 69.4473 468.945 69.6934 468.102 69.6934C467.27 69.6934 466.584 69.4473 466.045 68.9551C465.506 68.4512 465.236 67.8008 465.236 67.0039Z" fill="black"/>
</svg>
