<svg width="237" height="50" viewBox="0 0 237 50" fill="none" xmlns="http://www.w3.org/2000/svg">
<path d="M8.0588 2H18.8823L24.2941 15.5294L17.5294 19.5882C20.4273 25.4641 25.1829 30.2198 31.0588 33.1176L35.1176 26.3529L48.647 31.7647V42.5882C48.647 44.0235 48.0769 45.4 47.062 46.4149C46.0471 47.4298 44.6706 48 43.2353 48C32.6803 47.3586 22.7251 42.8764 15.2479 35.3992C7.77063 27.9219 3.28846 17.9667 2.64703 7.41176C2.64703 5.97648 3.2172 4.59997 4.2321 3.58507C5.24701 2.57017 6.62351 2 8.0588 2" stroke="#12C223" stroke-width="4" stroke-linecap="round" stroke-linejoin="round"/>
<path d="M35.1176 7.41176L40.5294 12.8235L51.3529 2" stroke="#12C223" stroke-width="4" stroke-linecap="round" stroke-linejoin="round"/>
<path d="M83.4349 16.1699H75.7533V37H69.5834V16.1699H62.0424V11.4062H83.4349V16.1699ZM96.1263 23.3418L94.1752 23.2012C92.3119 23.2012 91.1166 23.7871 90.5892 24.959V37H84.6654V17.9805H90.2201L90.4135 20.4238C91.4095 18.5605 92.7982 17.6289 94.5795 17.6289C95.2123 17.6289 95.7631 17.6992 96.2318 17.8398L96.1263 23.3418ZM109.591 34.9434C108.337 36.5488 106.644 37.3516 104.511 37.3516C102.425 37.3516 100.843 36.748 99.765 35.541C98.6986 34.3223 98.1654 32.5762 98.1654 30.3027V17.9805H104.089V30.3379C104.089 31.9668 104.88 32.7812 106.462 32.7812C107.822 32.7812 108.788 32.2949 109.363 31.3223V17.9805H115.322V37H109.767L109.591 34.9434ZM127.785 37.3516C124.867 37.3516 122.505 36.4844 120.701 34.75C118.896 33.0039 117.994 30.7363 117.994 27.9473V27.4551C117.994 25.5098 118.351 23.793 119.066 22.3047C119.792 20.8164 120.847 19.668 122.23 18.8594C123.613 18.0391 125.253 17.6289 127.152 17.6289C129.824 17.6289 131.933 18.4609 133.48 20.125C135.027 21.7773 135.8 24.0859 135.8 27.0508V29.3535H124.023C124.234 30.4199 124.697 31.2578 125.411 31.8672C126.126 32.4766 127.052 32.7812 128.189 32.7812C130.064 32.7812 131.529 32.125 132.583 30.8125L135.29 34.0117C134.552 35.0312 133.503 35.8457 132.144 36.4551C130.796 37.0527 129.343 37.3516 127.785 37.3516ZM127.117 22.1992C125.382 22.1992 124.351 23.3477 124.023 25.6445H129.999V25.1875C130.023 24.2383 129.783 23.5059 129.279 22.9902C128.775 22.4629 128.054 22.1992 127.117 22.1992ZM155.857 27.6309C155.857 30.584 155.189 32.9453 153.853 34.7148C152.529 36.4727 150.736 37.3516 148.474 37.3516C146.728 37.3516 145.292 36.7129 144.167 35.4355V44.3125H138.244V17.9805H143.781L143.956 19.7383C145.093 18.332 146.587 17.6289 148.439 17.6289C150.783 17.6289 152.605 18.4961 153.906 20.2305C155.206 21.9531 155.857 24.3262 155.857 27.3496V27.6309ZM149.933 27.2617C149.933 23.8867 148.949 22.1992 146.98 22.1992C145.574 22.1992 144.636 22.7031 144.167 23.7109V31.1992C144.683 32.2539 145.632 32.7812 147.015 32.7812C148.902 32.7812 149.874 31.1523 149.933 27.8945V27.2617ZM164.277 20.0195C165.542 18.4258 167.16 17.6289 169.128 17.6289C171.226 17.6289 172.808 18.25 173.874 19.4922C174.941 20.7344 175.486 22.5684 175.509 24.9941V37H169.568V25.1348C169.568 24.127 169.363 23.3887 168.953 22.9199C168.542 22.4395 167.845 22.1992 166.861 22.1992C165.642 22.1992 164.781 22.5859 164.277 23.3594V37H158.353V10H164.277V20.0195ZM178.058 27.3145C178.058 25.416 178.427 23.7285 179.165 22.252C179.904 20.7637 180.964 19.6211 182.347 18.8242C183.73 18.0273 185.353 17.6289 187.216 17.6289C190.064 17.6289 192.308 18.5137 193.949 20.2832C195.589 22.041 196.41 24.4375 196.41 27.4727V27.6836C196.41 30.6484 195.583 33.0039 193.931 34.75C192.29 36.4844 190.064 37.3516 187.251 37.3516C184.544 37.3516 182.37 36.543 180.73 34.9258C179.089 33.2969 178.204 31.0938 178.076 28.3164L178.058 27.3145ZM183.982 27.6836C183.982 29.4414 184.257 30.7305 184.808 31.5508C185.359 32.3711 186.173 32.7812 187.251 32.7812C189.361 32.7812 190.439 31.1582 190.486 27.9121V27.3145C190.486 23.9043 189.396 22.1992 187.216 22.1992C185.236 22.1992 184.163 23.6699 183.999 26.6113L183.982 27.6836ZM204.46 17.9805L204.654 20.2129C205.966 18.4902 207.777 17.6289 210.085 17.6289C212.066 17.6289 213.542 18.2207 214.515 19.4043C215.499 20.5879 216.009 22.3691 216.044 24.748V37H210.103V24.9941C210.103 24.0332 209.91 23.3301 209.523 22.8848C209.136 22.4277 208.433 22.1992 207.413 22.1992C206.253 22.1992 205.392 22.6562 204.829 23.5703V37H198.906V17.9805H204.46ZM228.542 37.3516C225.624 37.3516 223.263 36.4844 221.458 34.75C219.654 33.0039 218.751 30.7363 218.751 27.9473V27.4551C218.751 25.5098 219.109 23.793 219.824 22.3047C220.55 20.8164 221.605 19.668 222.988 18.8594C224.37 18.0391 226.011 17.6289 227.91 17.6289C230.581 17.6289 232.691 18.4609 234.238 20.125C235.785 21.7773 236.558 24.0859 236.558 27.0508V29.3535H224.781C224.992 30.4199 225.454 31.2578 226.169 31.8672C226.884 32.4766 227.81 32.7812 228.947 32.7812C230.822 32.7812 232.286 32.125 233.341 30.8125L236.048 34.0117C235.31 35.0312 234.261 35.8457 232.902 36.4551C231.554 37.0527 230.101 37.3516 228.542 37.3516ZM227.874 22.1992C226.14 22.1992 225.109 23.3477 224.781 25.6445H230.757V25.1875C230.781 24.2383 230.54 23.5059 230.036 22.9902C229.533 22.4629 228.812 22.1992 227.874 22.1992Z" fill="#3D3ADA"/>
</svg>
